<svg xmlns="http://www.w3.org/2000/svg" viewBox="-10 -29 268 268">
	<style>
		path { fill: #0a0a0a }
		@media (prefers-color-scheme: dark) {
			path { fill: #fafafa }
		}
	</style>
	<path d="M92.8496 113.895C98.2531 116.948 103.72 119.714 109.251 122.194C114.845 124.611 120.63 126.677 126.605 128.394C132.581 130.048 138.843 131.32 145.391 132.21C152.002 133.1 159.027 133.545 166.464 133.545C175.428 133.545 183.056 132.973 189.35 131.828C195.644 130.62 200.761 128.999 204.702 126.964C208.707 124.865 211.6 122.385 213.38 119.523C215.223 116.661 216.145 113.545 216.145 110.175C216.145 104.77 213.888 100.509 209.374 97.3928C204.861 94.2131 197.9 92.6235 188.492 92.6235C184.36 92.6235 180.005 92.9097 175.428 93.4818C170.851 93.9906 166.21 94.5631 161.506 95.1988C156.865 95.835 152.256 96.4389 147.679 97.0114C143.166 97.5202 138.906 97.7746 134.901 97.7746C128.227 97.7746 121.806 96.9159 115.639 95.1988C109.537 93.4818 104.102 90.9065 99.3336 87.4724C94.6292 84.0384 90.8788 79.7456 88.0815 74.5949C85.2847 69.4438 83.8858 63.434 83.8858 56.5659C83.8858 52.4961 84.4262 48.4581 85.5071 44.4516C86.6513 40.4451 88.4314 36.6296 90.847 33.0049C93.3263 29.3165 96.5049 25.9142 100.383 22.7983C104.26 19.6186 108.933 16.884 114.4 14.5945C119.931 12.3054 126.288 10.5247 133.471 9.25275C140.718 7.91752 148.951 7.24948 158.168 7.24948C164.843 7.24948 171.55 7.63128 178.289 8.39445C185.027 9.09392 191.575 10.1115 197.932 11.4467C204.353 12.7824 210.519 14.4038 216.431 16.3116C222.343 18.156 227.842 20.2225 232.928 22.512L219.673 46.9318C215.477 45.0874 210.964 43.4022 206.133 41.8763C201.301 40.2862 196.247 38.9191 190.971 37.7742C185.694 36.6296 180.228 35.7395 174.57 35.1033C168.975 34.4038 163.254 34.0543 157.405 34.0543C149.078 34.0543 142.212 34.6582 136.809 35.8665C131.469 37.0747 127.209 38.6329 124.031 40.5406C120.852 42.3846 118.627 44.4835 117.356 46.8362C116.148 49.1258 115.544 51.4153 115.544 53.7044C115.544 58.156 117.547 61.8126 121.552 64.6741C125.557 67.4724 131.66 68.8714 139.86 68.8714C143.166 68.8714 146.948 68.6488 151.208 68.2038C155.53 67.695 160.044 67.1543 164.748 66.5819C169.516 66.0098 174.347 65.501 179.242 65.0559C184.201 64.5472 189 64.2928 193.641 64.2928C202.414 64.2928 210.169 65.2785 216.908 67.2499C223.71 69.2213 229.399 72.051 233.977 75.7395C238.554 79.3642 242.018 83.784 244.37 88.9988C246.722 94.1494 247.899 99.9367 247.899 106.359C247.899 114.944 245.896 122.608 241.891 129.348C237.95 136.026 232.292 141.686 224.918 146.328C217.607 150.906 208.771 154.404 198.409 156.821C188.047 159.174 176.509 160.35 163.794 160.35C155.403 160.35 147.202 159.81 139.193 158.728C131.183 157.711 123.49 156.248 116.116 154.341C108.806 152.369 101.813 150.048 95.1379 147.377C88.5265 144.643 82.3922 141.654 76.7344 138.41L92.8496 113.895Z"/>
	<path d="M61.6403 152.186C52.6562 145.12 51.0106 132.146 57.946 123.059L73.2087 105.166L61.8522 114.989C47.4058 127.484 28.3087 133.205 9.37453 130.71C16.3561 148.988 15.5953 169.321 7.26748 187.025L0 202.476L9.90936 188.569C22.2742 171.218 44.5737 164.066 64.7191 170.992L108.897 187.793C134.144 197.395 161.552 199.835 188.098 194.844C204.543 191.752 219.721 183.904 231.753 172.27L245.15 159.315L226.049 171.417C217.61 176.762 208.371 180.722 198.681 183.145C180.352 187.729 161.243 188.255 142.689 184.686L129.484 182.146C120.289 180.377 111.273 177.779 102.545 174.384L90.5177 169.705C81.8562 166.335 73.7406 161.702 66.4351 155.957L61.6403 152.186Z"/>
</svg>
